<svg xmlns="http://www.w3.org/2000/svg" width="82.245" height="57.333" viewBox="0 0 82.245 57.333">
  <path id="Artboard_1" data-name="Artboard 1" d="M102,104.72a18.39,18.39,0,0,1-5.88,13.7,18.46,18.46,0,0,1-13.52,5.7A18.59,18.59,0,0,1,67.29,117a24.32,24.32,0,0,1-5.52-16.19q0-17.62,29.9-34l2.85,4.45Q84.38,79.63,84.37,84.78c0,1.07,1.43,2.14,4.27,3.21,4.28,1.54,7.18,3,8.73,4.44Q102,96.36,102,104.72Zm42,0a19.32,19.32,0,0,1-5.34,13.7,19.68,19.68,0,0,1-29-1.43A23.84,23.84,0,0,1,104,100.8q0-17.62,29.9-34l3.21,4.45Q126.6,79.62,126.6,84.77c0,1.07,1.55,2.14,4.63,3.21q6.24,2.31,8.55,4.44Q144,96.36,144,104.72Z" transform="translate(-61.758 -66.8)" fill="#c6c6c6"/>
</svg>
