<svg xmlns="http://www.w3.org/2000/svg" width="51.625" height="35.987" viewBox="0 0 51.625 35.987">
  <path id="Artboard_1" data-name="Artboard 1" d="M87.018,90.6A12.416,12.416,0,0,1,74.841,102.78a11.669,11.669,0,0,1-9.61-4.469,15.266,15.266,0,0,1-3.465-10.162q0-11.06,18.768-21.342L82.323,69.6q-6.365,5.254-6.371,8.486c0,.672.9,1.343,2.68,2.015a16.992,16.992,0,0,1,5.48,2.787Q87.018,85.355,87.018,90.6Zm26.363,0a12.127,12.127,0,0,1-3.352,8.6,12.353,12.353,0,0,1-18.2-.9,14.964,14.964,0,0,1-3.553-10.162q0-11.06,18.768-21.342l2.015,2.793q-6.6,5.254-6.6,8.486c0,.672.973,1.343,2.906,2.015a17.172,17.172,0,0,1,5.367,2.787Q113.381,85.355,113.381,90.6Z" transform="translate(113.383 102.787) rotate(-180)" fill="#c6c6c6"/>
</svg>
